<?xml version="1.0" encoding="UTF-8" standalone="no"?>
<svg
   id="emoji"
   viewBox="0 0 72 72"
   version="1.1"
   sodipodi:docname="call.svg"
   inkscape:version="1.1.2 (0a00cf5339, 2022-02-04)"
   xmlns:inkscape="http://www.inkscape.org/namespaces/inkscape"
   xmlns:sodipodi="http://sodipodi.sourceforge.net/DTD/sodipodi-0.dtd"
   xmlns="http://www.w3.org/2000/svg"
   xmlns:svg="http://www.w3.org/2000/svg">
  <defs
     id="defs2298">
    <linearGradient
       id="linearGradient4804"
       inkscape:swatch="solid">
      <stop
         style="stop-color:#000000;stop-opacity:1;"
         offset="0"
         id="stop4802" />
    </linearGradient>
    <linearGradient
       id="linearGradient4780"
       inkscape:swatch="solid">
      <stop
         style="stop-color:#000000;stop-opacity:1;"
         offset="0"
         id="stop4778" />
    </linearGradient>
  </defs>
  <sodipodi:namedview
     id="namedview2296"
     pagecolor="#ffffff"
     bordercolor="#666666"
     borderopacity="1.0"
     inkscape:pageshadow="2"
     inkscape:pageopacity="0.0"
     inkscape:pagecheckerboard="true"
     showgrid="false"
     inkscape:zoom="10.458333"
     inkscape:cx="36.000001"
     inkscape:cy="36.000001"
     inkscape:window-width="1920"
     inkscape:window-height="1016"
     inkscape:window-x="0"
     inkscape:window-y="0"
     inkscape:window-maximized="1"
     inkscape:current-layer="emoji" />
  <ellipse
     style="fill:#fffffd;fill-opacity:1;stroke:none"
     id="path848"
     cx="36"
     cy="36"
     rx="34.541"
     ry="34.540272" />
  <g
     id="line"
     transform="translate(-0.29813916,0.54803916)">
    <path
       fill="none"
       stroke="#000000"
       stroke-linecap="round"
       stroke-linejoin="round"
       stroke-width="2"
       d="m 13.6707,21.3098 c 1.4142,9.8995 26.8701,35.3553 36.7696,36.7696 0,0 5.6569,0 8.4853,-5.6569 l -9.1924,-9.1924 -3.5355,3.5355 C 39.1266,45.3514 26.3987,32.6235 24.9845,25.5524 L 28.52,22.0169 19.3276,12.8245 c -5.6569,2.8284 -5.6569,8.4853 -5.6569,8.4853 z"
       id="path953" />
    <path
       fill="none"
       stroke="#000000"
       stroke-linecap="round"
       stroke-linejoin="round"
       stroke-width="2"
       d="m 13.6707,21.3098 c 1.4142,9.8995 26.8701,35.3553 36.7696,36.7696 0,0 5.6569,0 8.4853,-5.6569 l -9.1924,-9.1924 -3.5355,3.5355 C 39.1266,45.3514 26.3987,32.6235 24.9845,25.5524 L 28.52,22.0169 19.3276,12.8245 c -5.6569,2.8284 -5.6569,8.4853 -5.6569,8.4853 z"
       id="path955" />
  </g>
</svg>
