<?xml version="1.0" encoding="UTF-8" standalone="no"?>
<svg
   id="emoji"
   viewBox="0 0 72 72"
   version="1.1"
   sodipodi:docname="cancel.svg"
   inkscape:version="1.1.2 (0a00cf5339, 2022-02-04)"
   xmlns:inkscape="http://www.inkscape.org/namespaces/inkscape"
   xmlns:sodipodi="http://sodipodi.sourceforge.net/DTD/sodipodi-0.dtd"
   xmlns="http://www.w3.org/2000/svg"
   xmlns:svg="http://www.w3.org/2000/svg">
  <defs
     id="defs44" />
  <sodipodi:namedview
     id="namedview42"
     pagecolor="#ffffff"
     bordercolor="#666666"
     borderopacity="1.0"
     inkscape:showpageshadow="2"
     inkscape:pageopacity="0"
     inkscape:pagecheckerboard="true"
     inkscape:deskcolor="#d1d1d1"
     showgrid="false"
     inkscape:zoom="4.1104933"
     inkscape:cx="56.075995"
     inkscape:cy="49.994"
     inkscape:window-width="1920"
     inkscape:window-height="1016"
     inkscape:window-x="0"
     inkscape:window-y="0"
     inkscape:window-maximized="1"
     inkscape:current-layer="emoji"
     inkscape:pageshadow="2" />
  <g
     id="hair" />
  <g
     id="skin" />
  <g
     id="skin-shadow" />
  <ellipse
     style="fill:#fffffd;fill-opacity:1;stroke-width:4.65"
     id="path848"
     cx="37.807865"
     cy="36.327728"
     rx="34.540501"
     ry="34.540272" />
  <path
     d="M 36,61 C 22.1923,61 11,49.8077 11,36 11,22.1923 22.1923,11 36,11 49.8077,11 61,22.1923 61,36 61,49.8077 49.8077,61 36,61 Z M 47.46345,28.709625 c 0.46925,-0.46925 0.46925,-1.2327 0,-1.701925 l -2.553825,-2.551925 c -0.46925,-0.469225 -1.2327,-0.469225 -1.701925,0 L 35.975,31.68845 28.7423,24.455775 c -0.469225,-0.469225 -1.232675,-0.469225 -1.701925,0 L 24.48655,27.0077 c -0.46925,0.469225 -0.46925,1.232675 0,1.701925 l 7.2346,7.2346 -7.2346,7.230775 c -0.46925,0.469225 -0.46925,1.2327 0,1.701925 l 2.553825,2.55385 c 0.46925,0.469225 1.2327,0.469225 1.701925,0 l 7.2327,-7.234625 7.2327,7.234625 c 0.469225,0.469225 1.232675,0.469225 1.701925,0 l 2.553825,-2.55385 c 0.46925,-0.469225 0.46925,-1.2327 0,-1.701925 l -7.2346,-7.230775 z"
     id="path4"
     style="fill:#000000;stroke-width:1.92307" />
</svg>
