<?xml version="1.0" encoding="UTF-8" standalone="no"?>
<svg
   id="emoji"
   viewBox="0 0 72 72"
   version="1.1"
   sodipodi:docname="record-live.svg"
   inkscape:version="1.1.2 (0a00cf5339, 2022-02-04)"
   xmlns:inkscape="http://www.inkscape.org/namespaces/inkscape"
   xmlns:sodipodi="http://sodipodi.sourceforge.net/DTD/sodipodi-0.dtd"
   xmlns="http://www.w3.org/2000/svg"
   xmlns:svg="http://www.w3.org/2000/svg">
  <defs
     id="defs1471" />
  <sodipodi:namedview
     id="namedview1469"
     pagecolor="#ffffff"
     bordercolor="#666666"
     borderopacity="1.0"
     inkscape:pageshadow="2"
     inkscape:pageopacity="0.0"
     inkscape:pagecheckerboard="true"
     showgrid="false"
     inkscape:zoom="1.751078"
     inkscape:cx="41.974143"
     inkscape:cy="84.804901"
     inkscape:window-width="1920"
     inkscape:window-height="1016"
     inkscape:window-x="0"
     inkscape:window-y="0"
     inkscape:window-maximized="1"
     inkscape:current-layer="emoji" />
  <ellipse
     style="fill:#fffffd;fill-opacity:1;stroke-width:4.65"
     id="path848"
     cx="36"
     cy="36"
     rx="34.540501"
     ry="34.540272" />
  <path
     style="fill:#ff0000;stroke-width:0.051058"
     d="m 28.370362,60.941829 c -0.764425,-0.195627 -1.378175,-0.894745 -1.510025,-1.720048 -0.1461,-0.9145 0.34885,-1.828678 1.211225,-2.23716 l 0.34585,-0.163826 2.718855,-0.01487 2.718825,-0.01487 v -2.904148 -2.90415 l -0.1404,-0.0283 c -0.07722,-0.01555 -0.3472,-0.06322 -0.599925,-0.105912 -2.2378,-0.377975 -4.59953,-1.374628 -6.52508,-2.753602 -1.51185,-1.082695 -2.9907,-2.615533 -3.984325,-4.129768 -1.3601,-2.072716 -2.148175,-4.214452 -2.464925,-6.69885 -0.05443,-0.426852 -0.08653,-1.289108 -0.105525,-2.834495 -0.03045,-2.476986 -0.0025,-2.802056 0.289375,-3.399931 0.291325,-0.596188 0.913375,-1.044893 1.573775,-1.135208 0.936075,-0.128015 1.77635,0.314375 2.191375,1.15371 l 0.192275,0.388865 0.03095,2.581263 c 0.03255,2.714654 0.051,2.957834 0.306925,4.052311 0.263825,1.128146 0.877075,2.560424 1.512575,3.532646 1.57415,2.408244 4.05843,4.199712 6.829405,4.924844 2.75765,0.721648 5.67905,0.438886 8.226625,-0.79626 2.223365,-1.07796 4.13973,-2.945426 5.244075,-5.110261 0.66609,-1.305726 1.06237,-2.649366 1.206635,-4.091244 0.0291,-0.290815 0.0529,-1.486493 0.0529,-2.657058 0,-1.758761 0.01375,-2.181141 0.07924,-2.432613 0.268565,-1.031356 1.276495,-1.696228 2.3505,-1.550483 0.638445,0.08664 1.291495,0.553237 1.569445,1.121355 0.27679,0.56573 0.304585,0.910128 0.27382,3.392534 -0.01985,1.599562 -0.0511,2.429403 -0.10862,2.881463 -0.365925,2.875903 -1.45506,5.481421 -3.245505,7.764144 -0.5423,0.691408 -2.024925,2.163591 -2.680385,2.661509 -2.31818,1.761006 -4.647545,2.753056 -7.594885,3.234574 l -0.191475,0.03128 v 2.907995 2.907995 h 2.530065 c 2.864955,0 3.009325,0.0144 3.530645,0.351906 0.37849,0.245047 0.602855,0.50322 0.801365,0.922127 0.144335,0.304583 0.158415,0.379683 0.158415,0.844878 0,0.46801 -0.01355,0.539203 -0.16262,0.85386 -0.285355,0.602373 -0.89052,1.108051 -1.4233,1.189321 -0.11061,0.01688 -3.51992,0.03507 -7.57622,0.04044 -5.872525,0.0078 -7.427455,-0.0036 -7.631955,-0.05597 z m 6.863305,-17.116424 c -3.722225,-0.327943 -6.89918,-3.095504 -7.627455,-6.644532 -0.1785,-0.869843 -0.18445,-1.186311 -0.183425,-9.768183 0,-9.105083 0,-9.035628 0.251275,-10.02251 0.604575,-2.367829 2.209705,-4.347059 4.41953,-5.449589 2.5029,-1.248738 5.334125,-1.254343 7.80695,-0.01545 2.342125,1.173405 3.93008,3.223025 4.53443,5.852726 l 0.113555,0.494093 0.01725,8.858575 c 0.0127,6.496859 0.0015,8.98789 -0.0419,9.343628 -0.241745,1.981855 -1.26566,3.901968 -2.792635,5.236944 -1.756435,1.535592 -4.166185,2.31971 -6.49761,2.114303 z"
     id="path924" />
</svg>
