<?xml version="1.0" encoding="UTF-8" standalone="no"?>
<!-- Created with Inkscape (http://www.inkscape.org/) -->

<svg
   width="40mm"
   height="40mm"
   viewBox="0 0 40 40"
   version="1.1"
   id="svg4297"
   inkscape:version="1.1.2 (0a00cf5339, 2022-02-04)"
   sodipodi:docname="select.svg"
   xmlns:inkscape="http://www.inkscape.org/namespaces/inkscape"
   xmlns:sodipodi="http://sodipodi.sourceforge.net/DTD/sodipodi-0.dtd"
   xmlns="http://www.w3.org/2000/svg"
   xmlns:svg="http://www.w3.org/2000/svg">
  <sodipodi:namedview
     id="namedview4299"
     pagecolor="#ffffff"
     bordercolor="#666666"
     borderopacity="1.0"
     inkscape:pageshadow="2"
     inkscape:pageopacity="0.0"
     inkscape:pagecheckerboard="0"
     inkscape:document-units="mm"
     showgrid="false"
     inkscape:zoom="1.3932941"
     inkscape:cx="-53.470407"
     inkscape:cy="44.14"
     inkscape:window-width="1920"
     inkscape:window-height="1016"
     inkscape:window-x="0"
     inkscape:window-y="0"
     inkscape:window-maximized="1"
     inkscape:current-layer="layer1" />
  <defs
     id="defs4294" />
  <g
     inkscape:label="Layer 1"
     inkscape:groupmode="layer"
     id="layer1">
    <circle
       style="fill:#ffffff;stroke-width:0.739448"
       id="path4973"
       cx="20.024612"
       cy="20.3293"
       r="20" />
    <path
       style="fill:#000000;stroke-width:0.0326662"
       d="m 17.98707,35.609935 c -1.346108,-0.05068 -1.435207,-0.09834 -1.981083,-1.059719 -0.781349,-1.376095 -4.577969,-8.565673 -5.640608,-10.681498 -0.5490887,-1.093295 -0.6428017,-1.345535 -0.6128837,-1.649647 0.04644,-0.472056 0.241785,-0.847432 0.6316287,-1.213734 1.066429,-1.00203 2.947996,-0.915262 3.866612,0.17831 0.239044,0.284571 0.524166,0.729902 0.892987,1.394753 0.47243,0.851622 0.823269,1.36131 0.890658,1.29392 0.04619,-0.04618 0.06851,-1.768527 0.09274,-7.157057 l 0.02468,-5.487476 0.172543,-0.343457 c 0.283481,-0.564288 0.666963,-0.9504553 1.199745,-1.208152 0.749729,-0.3626284 1.581963,-0.3440487 2.405026,0.053693 0.260629,0.1259478 0.352253,0.1931244 0.587992,0.431099 0.216576,0.218629 0.313321,0.34789 0.431031,0.5759 0.08347,0.161698 0.169403,0.374845 0.190945,0.473661 0.04338,0.198982 0.09304,2.754565 0.09632,4.957111 0.0011,0.723148 0.01298,1.314813 0.02646,1.314811 0.01348,-3e-6 0.139717,-0.02205 0.280537,-0.049 0.674221,-0.129015 1.468217,-8e-4 2.079601,0.335626 0.457579,0.251845 0.953486,0.855248 1.091896,1.328584 0.04423,0.151282 0.01183,0.14583 0.55775,0.09382 0.847222,-0.08072 1.476848,0.08525 2.049362,0.540203 0.306285,0.243394 0.522925,0.506455 0.672533,0.816644 l 0.115869,0.240236 0.149098,-0.01853 c 0.360724,-0.04483 0.958744,-0.05707 1.255531,-0.02573 0.284648,0.03006 0.361671,0.05322 0.657137,0.197535 0.262847,0.128383 0.391925,0.217314 0.601303,0.41428 0.311187,0.292744 0.567681,0.664637 0.656555,0.951944 0.314039,1.015228 0.208695,7.602823 -0.165426,10.344588 -0.211441,1.549581 -0.963272,2.535254 -2.185861,2.865735 -0.220161,0.05951 -0.395379,0.06928 -1.699124,0.09468 -1.739861,0.03389 -8.467472,0.03165 -9.39155,-0.0031 z m 9.934616,-1.628963 c 0.723672,-0.02622 0.763776,-0.03113 0.954975,-0.116938 0.23994,-0.10768 0.467192,-0.337347 0.574154,-0.580256 0.218072,-0.495248 0.372523,-1.705383 0.442855,-3.469799 0.09459,-2.373091 0.130756,-6.145078 0.06402,-6.677315 -0.03981,-0.317511 -0.11001,-0.473393 -0.280675,-0.623238 -0.183431,-0.161054 -0.387493,-0.240476 -0.616077,-0.239778 -0.227663,7.65e-4 -0.396464,0.0644 -0.589248,0.222368 -0.198767,0.162874 -0.243585,0.280634 -0.244584,0.642647 -10e-4,0.385048 -0.05092,0.905478 -0.103795,1.083513 -0.05315,0.178925 -0.292915,0.41944 -0.470812,0.47227 -0.230933,0.06858 -0.406652,0.05029 -0.6363,-0.06624 -0.360606,-0.182971 -0.418903,-0.400489 -0.42242,-1.576145 -0.0012,-0.395262 -0.01403,-0.946875 -0.02853,-1.225805 -0.03331,-0.640104 -0.07881,-0.764375 -0.333117,-0.909614 -0.210958,-0.120484 -0.545657,-0.184021 -0.739705,-0.140421 -0.145171,0.03262 -0.382588,0.191578 -0.553234,0.370414 l -0.103801,0.108781 -0.0363,0.865656 c -0.01997,0.476111 -0.0517,0.923428 -0.07055,0.994038 -0.06436,0.241277 -0.416775,0.475945 -0.714764,0.475945 -0.207433,0 -0.380381,-0.08529 -0.606398,-0.299049 l -0.170412,-0.161169 -0.01563,-1.721701 c -0.01114,-1.228283 -0.02713,-1.759149 -0.05574,-1.852367 -0.02414,-0.0786 -0.101293,-0.19002 -0.193649,-0.279632 -0.464936,-0.451116 -1.434995,-0.354627 -1.661859,0.165299 -0.03912,0.08966 -0.05551,0.336366 -0.07593,1.143321 -0.033,1.303491 -0.06685,1.461159 -0.355894,1.657882 -0.258709,0.176075 -0.686609,0.186427 -0.92238,0.02231 -0.169215,-0.117785 -0.244012,-0.261053 -0.290998,-0.55739 -0.02405,-0.151678 -0.04033,-1.842193 -0.05019,-5.21236 l -0.0146,-4.987877 -0.207859,-0.194442 c -0.260415,-0.24361 -0.448736,-0.314625 -0.77284,-0.291436 -0.163418,0.01169 -0.282291,0.04448 -0.436463,0.120376 -0.273313,0.134552 -0.3737,0.264646 -0.411066,0.532711 -0.01569,0.11256 -0.04362,1.623188 -0.06205,3.356952 -0.100819,9.478801 -0.097,9.293561 -0.199471,9.683952 -0.02487,0.09474 -0.08876,0.183244 -0.225191,0.311929 -0.382498,0.360791 -0.706515,0.489995 -1.228812,0.489995 -0.501352,0 -0.836889,-0.139396 -1.193156,-0.495684 -0.332171,-0.332187 -0.460863,-0.525361 -1.208078,-1.813405 -0.666968,-1.149717 -0.828314,-1.295195 -1.433631,-1.292652 -0.162427,6.55e-4 -0.300901,0.02252 -0.410871,0.0648 -0.169275,0.06508 -0.467544,0.264497 -0.469845,0.314131 -7.65e-4,0.01511 0.92361,1.771742 2.054023,3.903621 1.130413,2.131877 2.51837,4.75078 3.084347,5.819783 l 1.02905,1.943642 2.885414,0.0166 c 5.101686,0.02935 6.756405,0.02973 7.528095,0.0018 z M 14.602174,19.217044 c -1.137113,-0.663745 -2.458454,-1.939748 -3.081637,-2.975903 -0.845873,-1.406419 -1.236154,-2.907196 -1.183976,-4.552842 0.02176,-0.686154 0.07738,-1.094089 0.238115,-1.7463138 0.264653,-1.0738878 0.751698,-2.0901113 1.455293,-3.0364868 0.30017,-0.4037462 1.157178,-1.2592698 1.573043,-1.5703183 1.386769,-1.0372451 2.989752,-1.6297054 4.580056,-1.692787 0.565465,-0.022432 1.436931,0.031184 1.959977,0.1205885 1.222081,0.2088816 2.609103,0.8245275 3.556053,1.5783946 0.426884,0.339842 1.20694,1.1035496 1.490444,1.4592102 0.504797,0.6332709 1.020491,1.5585225 1.301783,2.3356376 0.326254,0.901331 0.474843,1.774224 0.475436,2.792967 8e-4,1.452571 -0.304741,2.650975 -0.995749,3.905016 -0.397343,0.721097 -0.858575,1.418071 -0.939079,1.419056 -0.02404,2.77e-4 -0.193091,-0.107232 -0.375662,-0.238946 -0.18257,-0.131714 -0.390745,-0.273917 -0.462611,-0.316004 -0.07186,-0.04208 -0.135775,-0.0803 -0.142018,-0.08493 -0.0062,-0.0047 0.07664,-0.123992 0.184182,-0.26527 0.332785,-0.437164 0.555877,-0.804348 0.824046,-1.356287 0.511358,-1.05246 0.717187,-1.914603 0.717836,-3.006762 C 25.778362,10.85966 25.544198,9.8327583 25.061004,8.8422275 24.01426,6.6964435 22.011215,5.2437049 19.60405,4.8844899 19.094263,4.8084179 18.150755,4.8086819 17.644075,4.8850364 15.60031,5.1930625 13.85804,6.2994466 12.70696,8.0202282 c -0.473204,0.7074065 -0.874401,1.6325192 -1.040649,2.3996088 -0.103419,0.477194 -0.141199,1.058425 -0.121099,1.863106 0.01946,0.779276 0.03749,0.90606 0.220488,1.550394 0.197852,0.69666 0.515512,1.387206 0.927295,2.015797 0.431775,0.659111 0.944075,1.207016 1.695163,1.812979 l 0.445387,0.359328 6.56e-4,0.661493 c 3.71e-4,0.363821 -0.003,0.661232 -0.0076,0.660915 -0.0045,-3.71e-4 -0.105489,-0.05738 -0.224436,-0.126817 z m -0.104432,-3.710893 c -0.499077,-0.622613 -0.852259,-1.259293 -1.083419,-1.953087 -0.161497,-0.484707 -0.189661,-0.774893 -0.171388,-1.76577 0.01746,-0.946925 0.0429,-1.106861 0.269355,-1.693216 0.6137,-1.589073 1.86607,-2.8111039 3.404993,-3.3225092 0.628551,-0.2088766 0.896109,-0.2475638 1.70678,-0.2467926 0.833925,8e-4 1.098706,0.041384 1.806052,0.276867 0.731183,0.2434177 1.290396,0.5792901 1.882922,1.1309155 0.922512,0.8588311 1.420853,1.7202964 1.673763,2.8933793 0.100063,0.464121 0.108526,1.664925 0.01526,2.164909 -0.167625,0.898604 -0.529366,1.663024 -1.16935,2.471034 -0.230325,0.290797 -0.300635,0.347823 -0.344815,0.279672 -0.03443,-0.05312 -0.01583,-1.367318 0.02479,-1.749967 0.02144,-0.202055 0.08192,-0.457231 0.178135,-0.751632 0.189108,-0.578629 0.224603,-0.840793 0.201797,-1.490428 -0.02124,-0.604806 -0.0963,-0.954824 -0.309871,-1.445034 C 22.338592,9.7441057 22.027022,9.2941025 21.591423,8.8727217 20.978046,8.2793676 20.254733,7.9104766 19.416508,7.7635101 19.080662,7.7046261 18.332117,7.6974121 17.958062,7.7494551 17.12708,7.8650703 16.42698,8.2246756 15.73917,8.8891873 c -0.964648,0.9319683 -1.32833,1.7832857 -1.328863,3.1106287 -1.86e-4,0.561618 0.03942,0.797315 0.232634,1.383025 l 0.140089,0.424662 0.01166,0.83299 c 0.0064,0.458144 0.007,0.92119 0.0014,1.028987 l -0.0103,0.195998 -0.288033,-0.359327 z"
       id="path4474" />
  </g>
</svg>
