<?xml version="1.0" encoding="UTF-8" standalone="no"?>
<!-- Created with Inkscape (http://www.inkscape.org/) -->

<svg
   xmlns:dc="http://purl.org/dc/elements/1.1/"
   xmlns:cc="http://creativecommons.org/ns#"
   xmlns:rdf="http://www.w3.org/1999/02/22-rdf-syntax-ns#"
   xmlns:svg="http://www.w3.org/2000/svg"
   xmlns="http://www.w3.org/2000/svg"
   xmlns:sodipodi="http://sodipodi.sourceforge.net/DTD/sodipodi-0.dtd"
   xmlns:inkscape="http://www.inkscape.org/namespaces/inkscape"
   width="56"
   height="56"
   viewBox="0 0 14.816666 14.816667"
   version="1.1"
   id="svg8"
   inkscape:version="0.92.3 (2405546, 2018-03-11)"
   sodipodi:docname="icon-56-56.svg"
   inkscape:export-filename="/home/strukturart/Schreibtisch/icon-112-112.png"
   inkscape:export-xdpi="96"
   inkscape:export-ydpi="96">
  <defs
     id="defs2" />
  <sodipodi:namedview
     id="base"
     pagecolor="#ffffff"
     bordercolor="#666666"
     borderopacity="1.0"
     inkscape:pageopacity="0.0"
     inkscape:pageshadow="2"
     inkscape:zoom="1.1421006"
     inkscape:cx="-162.40381"
     inkscape:cy="104.46287"
     inkscape:document-units="mm"
     inkscape:current-layer="layer1"
     showgrid="false"
     units="px"
     showguides="false"
     inkscape:window-width="1280"
     inkscape:window-height="745"
     inkscape:window-x="0"
     inkscape:window-y="27"
     inkscape:window-maximized="1"
     inkscape:lockguides="true" />
  <metadata
     id="metadata5">
    <rdf:RDF>
      <cc:Work
         rdf:about="">
        <dc:format>image/svg+xml</dc:format>
        <dc:type
           rdf:resource="http://purl.org/dc/dcmitype/StillImage" />
        <dc:title />
      </cc:Work>
    </rdf:RDF>
  </metadata>
  <g
     inkscape:label="Ebene 1"
     inkscape:groupmode="layer"
     id="layer1"
     transform="translate(0,-282.18332)">
    <rect
       style="opacity:1;fill:#d1523e;fill-opacity:1;stroke:#ff5e67;stroke-width:0.23119783;stroke-opacity:0"
       id="rect815"
       width="11.939635"
       height="12.056984"
       x="1.4385157"
       y="283.56317"
       ry="1.564888" />
    <g
       id="g1052"
       transform="translate(0.10376063,3.1750001)" />
    <path
       style="fill:#000000;stroke-width:0.01503127"
       d="m 7.314369,294.50262 c -0.1403542,-0.0355 -0.2635377,-0.13901 -0.3244783,-0.27273 -0.047334,-0.10386 -0.047809,-0.27098 -0.00105,-0.37322 0.054534,-0.11927 0.1167398,-0.18499 0.2260062,-0.23878 0.086902,-0.0428 0.1153963,-0.0493 0.213348,-0.0489 0.1419246,5e-4 0.2385244,0.0407 0.3354425,0.13939 0.092346,0.094 0.1345768,0.19257 0.1362028,0.31786 0.0019,0.14726 -0.037624,0.24584 -0.1394387,0.34765 -0.1219746,0.12197 -0.2857427,0.16925 -0.4460244,0.12873 z m -2.5884143,-0.17344 c -0.1405826,-0.0485 -0.2673006,-0.18243 -0.3051752,-0.3224 -0.023995,-0.0887 -0.00932,-0.24868 0.030334,-0.33057 0.041529,-0.0858 0.1308279,-0.17875 0.2147734,-0.22357 0.054884,-0.0293 0.08692,-0.0345 0.2148159,-0.0345 0.1285715,0 0.1597987,0.005 0.2158964,0.035 0.098015,0.0523 0.1907665,0.15592 0.2280801,0.2548 0.044464,0.11784 0.036224,0.27852 -0.019929,0.38848 -0.1066255,0.20878 -0.3568251,0.30939 -0.5787954,0.23272 z m 1.4444284,-1.24616 c -0.2140519,-0.0766 -0.3277727,-0.23417 -0.3275807,-0.45397 7.5e-5,-0.0899 0.00804,-0.12969 0.039244,-0.1964 0.1490014,-0.3185 0.5592752,-0.37585 0.7925967,-0.11078 0.1529094,0.17372 0.1498345,0.44721 -0.00699,0.62164 -0.127592,0.14191 -0.3310212,0.19898 -0.4972688,0.13951 z m 2.3985448,-0.17686 c -0.2215967,-0.0682 -0.3582687,-0.26798 -0.3399037,-0.49677 0.01384,-0.17238 0.105615,-0.3071 0.2614887,-0.38384 0.233528,-0.11497 0.5024297,-0.0296 0.6295137,0.19983 0.04065,0.0734 0.04459,0.0931 0.04459,0.2233 0,0.13019 -0.0039,0.14991 -0.04459,0.2233 -0.06274,0.11327 -0.156909,0.19128 -0.2748557,0.22772 -0.112571,0.0347 -0.179248,0.0363 -0.276243,0.007 z m -4.6126484,-0.15588 c -0.1252691,-0.0383 -0.2391129,-0.13472 -0.3026819,-0.25651 -0.029439,-0.0564 -0.035299,-0.0901 -0.035274,-0.20291 3e-5,-0.11769 0.00529,-0.14528 0.040399,-0.21207 0.05296,-0.10072 0.17294,-0.20747 0.2690822,-0.2394 0.1065824,-0.0354 0.2678176,-0.0254 0.3664443,0.0227 0.2149124,0.10482 0.3175129,0.36124 0.2381618,0.5952 -0.036114,0.10649 -0.1801272,0.24696 -0.2885016,0.28142 -0.082845,0.0263 -0.2210523,0.0319 -0.2876257,0.0116 z m 2.3298469,-1.24205 c -0.3762622,-0.0599 -0.7114392,-0.18927 -1.0540176,-0.40697 -0.038019,-0.0241 -0.044044,-0.0231 -0.170994,0.0301 -0.4308068,0.18034 -0.9082535,0.18104 -1.3329695,0.002 -0.9241805,-0.38973 -1.3369977,-1.50652 -0.8938512,-2.41812 0.1013136,-0.20841 0.1845306,-0.32685 0.3404294,-0.48453 0.2758704,-0.27902 0.6300266,-0.45218 1.0270341,-0.50214 l 0.1475731,-0.0185 0.040219,-0.074 c 0.3156336,-0.58059 0.8567368,-1.03749 1.4719597,-1.24289 0.2855558,-0.0953 0.4119293,-0.11362 0.7853694,-0.11362 0.2954331,0 0.3581631,0.005 0.4960318,0.0341 0.6877863,0.14889 1.2570206,0.53484 1.6385243,1.11094 l 0.102015,0.15405 0.1638697,0.007 c 0.4877567,0.0197 0.9136187,0.20131 1.2614324,0.53779 0.287115,0.27776 0.462585,0.58338 0.556796,0.9698 0.05353,0.21956 0.06567,0.56263 0.02791,0.78865 -0.04951,0.29631 -0.15021,0.54787 -0.321065,0.80204 -0.272838,0.40587 -0.6546507,0.67124 -1.1522404,0.80084 -0.137158,0.0357 -0.175308,0.0391 -0.435908,0.0384 -0.2701037,-5e-4 -0.2951537,-0.003 -0.4618657,-0.0473 -0.1727477,-0.0457 -0.3951917,-0.14005 -0.5403437,-0.22936 l -0.07304,-0.0449 -0.1372001,0.0689 c -0.1650711,0.0829 -0.4312999,0.17351 -0.636392,0.21659 -0.2041101,0.0429 -0.6453207,0.0541 -0.8492669,0.0217 z m 5.4788966,-2.07935 c -0.0248,-0.0157 -0.171928,-0.15605 -0.326948,-0.31199 -0.202063,-0.20329 -0.28601,-0.29804 -0.296531,-0.33473 -0.04575,-0.15953 0.121272,-0.29716 0.267232,-0.22021 0.02233,0.0118 0.173639,0.15551 0.336254,0.31942 0.244198,0.24613 0.297394,0.3074 0.3056,0.35195 0.02912,0.15806 -0.150325,0.28094 -0.285607,0.19556 z m -0.775012,-1.24513 c -0.387496,-0.58803 -1.0621907,-1.00386 -1.7294034,-1.06586 l -0.105195,-0.01 -0.07027,-0.0917 c -0.03865,-0.0505 -0.12916,-0.15669 -0.2011347,-0.23611 l -0.130862,-0.1444 0.05439,-0.0808 c 0.02991,-0.0444 0.102203,-0.12856 0.1606417,-0.18697 0.189851,-0.18977 0.398614,-0.30839 0.6625387,-0.37646 0.138138,-0.0357 0.168874,-0.0382 0.3831697,-0.0319 0.271151,0.008 0.381136,0.0337 0.593734,0.13835 0.318182,0.15673 0.58051,0.44531 0.704677,0.77519 0.124582,0.33099 0.116846,0.72993 -0.02041,1.05248 -0.04725,0.11102 -0.201047,0.35915 -0.222619,0.35915 -0.0069,0 -0.04255,-0.0455 -0.07925,-0.10127 z m 0.768403,-0.66244 c -0.04385,-0.0366 -0.05149,-0.0533 -0.05753,-0.12611 -0.0066,-0.0793 -0.0041,-0.087 0.0462,-0.14192 l 0.05316,-0.058 0.42581,-0.005 c 0.468022,-0.005 0.517929,0.001 0.568775,0.0726 0.06584,0.0925 0.0503,0.19839 -0.03947,0.269 -0.03847,0.0303 -0.05628,0.0314 -0.493143,0.0314 h -0.453239 z m -3.1944551,-1.31129 c -0.04899,-0.0148 -0.6114307,-0.56482 -0.6479497,-0.63364 -0.072322,-0.1363 0.05053,-0.3031 0.202604,-0.27509 0.04455,0.008 0.105813,0.0614 0.3519517,0.30561 0.163909,0.16261 0.307645,0.31393 0.319415,0.33626 0.04259,0.0808 0.009,0.21138 -0.06423,0.24977 -0.04558,0.0239 -0.114981,0.0313 -0.161795,0.0171 z m 2.6975241,-10e-4 c -0.09578,-0.0382 -0.15009,-0.14074 -0.121082,-0.22863 0.0206,-0.0624 0.593507,-0.63971 0.663345,-0.66843 0.133136,-0.0547 0.284997,0.0917 0.239144,0.23066 -0.02145,0.065 -0.582492,0.63094 -0.656924,0.66267 -0.05583,0.0238 -0.07287,0.0243 -0.124483,0.003 z M 9.8433173,285.6034 c -0.03284,-0.0329 -0.05331,-0.0694 -0.05687,-0.10145 -0.0031,-0.0276 -0.0021,-0.23842 0.0019,-0.46854 l 0.0075,-0.41838 0.04819,-0.0431 c 0.06543,-0.0584 0.137765,-0.0704 0.2104477,-0.0349 0.106961,0.0523 0.11083,0.0732 0.106196,0.57391 l -0.0041,0.44084 -0.05615,0.0515 c -0.04821,0.0441 -0.06673,0.0515 -0.1310227,0.0515 -0.06517,0 -0.08153,-0.007 -0.126191,-0.0513 z"
       id="path1016"
       inkscape:connector-curvature="0" />
  </g>
</svg>
