<?xml version="1.0" encoding="UTF-8" standalone="no"?>
<!-- Created with Inkscape (http://www.inkscape.org/) -->

<svg
   width="56"
   height="56"
   viewBox="0 0 14.816666 14.816667"
   version="1.1"
   id="svg8"
   inkscape:version="1.1 (c4e8f9e, 2021-05-24)"
   sodipodi:docname="icon-56-56-new.svg"
   inkscape:export-filename="/home/strukturart/Schreibtisch/icon-112-112.png"
   inkscape:export-xdpi="96"
   inkscape:export-ydpi="96"
   xmlns:inkscape="http://www.inkscape.org/namespaces/inkscape"
   xmlns:sodipodi="http://sodipodi.sourceforge.net/DTD/sodipodi-0.dtd"
   xmlns="http://www.w3.org/2000/svg"
   xmlns:svg="http://www.w3.org/2000/svg"
   xmlns:rdf="http://www.w3.org/1999/02/22-rdf-syntax-ns#"
   xmlns:cc="http://creativecommons.org/ns#"
   xmlns:dc="http://purl.org/dc/elements/1.1/">
  <defs
     id="defs2" />
  <sodipodi:namedview
     id="base"
     pagecolor="#ffffff"
     bordercolor="#666666"
     borderopacity="1.0"
     inkscape:pageopacity="0.0"
     inkscape:pageshadow="2"
     inkscape:zoom="2.9512978"
     inkscape:cx="57.262943"
     inkscape:cy="29.30914"
     inkscape:document-units="mm"
     inkscape:current-layer="layer1"
     showgrid="false"
     units="px"
     showguides="false"
     inkscape:window-width="1848"
     inkscape:window-height="1016"
     inkscape:window-x="72"
     inkscape:window-y="27"
     inkscape:window-maximized="1"
     inkscape:lockguides="true"
     inkscape:pagecheckerboard="0" />
  <metadata
     id="metadata5">
    <rdf:RDF>
      <cc:Work
         rdf:about="">
        <dc:format>image/svg+xml</dc:format>
        <dc:type
           rdf:resource="http://purl.org/dc/dcmitype/StillImage" />
      </cc:Work>
    </rdf:RDF>
  </metadata>
  <g
     inkscape:label="Ebene 1"
     inkscape:groupmode="layer"
     id="layer1"
     transform="translate(0,-282.18332)">
    <g
       id="g1052"
       transform="translate(0.10376063,3.1750001)" />
    <g
       id="g1216"
       transform="matrix(0.02305737,0,0,0.02305737,2.1166669,284.29999)">
      <g
         id="g1161">
	<g
   id="g1159">
		<path
   d="M 229.5,0 C 102.751,0 0,102.751 0,229.5 0,356.249 102.751,459 229.5,459 356.25,459 459,356.25 459,229.5 459,102.75 356.25,0 229.5,0 Z m 121.314,119.183 -72.647,139.261 c -4.401,8.438 -11.285,15.321 -19.722,19.723 l -139.262,72.647 c -3.156,1.647 -7.016,1.055 -9.534,-1.463 -2.518,-2.518 -3.11,-6.378 -1.463,-9.534 l 72.648,-139.261 c 4.401,-8.438 11.285,-15.321 19.722,-19.723 l 139.261,-72.647 c 3.156,-1.646 7.016,-1.054 9.534,1.463 2.517,2.517 3.11,6.377 1.463,9.534 z"
   id="path1157" />

	</g>

</g>
      <g
         id="g1163">
</g>
      <g
         id="g1165">
</g>
      <g
         id="g1167">
</g>
      <g
         id="g1169">
</g>
      <g
         id="g1171">
</g>
      <g
         id="g1173">
</g>
      <g
         id="g1175">
</g>
      <g
         id="g1177">
</g>
      <g
         id="g1179">
</g>
      <g
         id="g1181">
</g>
      <g
         id="g1183">
</g>
      <g
         id="g1185">
</g>
      <g
         id="g1187">
</g>
      <g
         id="g1189">
</g>
      <g
         id="g1191">
</g>
    </g>
  </g>
</svg>
