<?xml version="1.0" encoding="UTF-8" standalone="no"?>
<!-- Created with Inkscape (http://www.inkscape.org/) -->

<svg
   version="1.1"
   id="svg1531"
   width="682.66669"
   height="682.66669"
   viewBox="0 0 682.66669 682.66669"
   sodipodi:docname="online.svg"
   inkscape:version="1.1.2 (0a00cf5339, 2022-02-04)"
   xmlns:inkscape="http://www.inkscape.org/namespaces/inkscape"
   xmlns:sodipodi="http://sodipodi.sourceforge.net/DTD/sodipodi-0.dtd"
   xmlns="http://www.w3.org/2000/svg"
   xmlns:svg="http://www.w3.org/2000/svg">
  <defs
     id="defs1535" />
  <sodipodi:namedview
     id="namedview1533"
     pagecolor="#ffffff"
     bordercolor="#666666"
     borderopacity="1.0"
     inkscape:pageshadow="2"
     inkscape:pageopacity="0.0"
     inkscape:pagecheckerboard="0"
     showgrid="false"
     inkscape:zoom="1.1455078"
     inkscape:cx="340.89686"
     inkscape:cy="340.89686"
     inkscape:window-width="1920"
     inkscape:window-height="1016"
     inkscape:window-x="0"
     inkscape:window-y="0"
     inkscape:window-maximized="1"
     inkscape:current-layer="g1537" />
  <g
     inkscape:groupmode="layer"
     inkscape:label="Image"
     id="g1537">
    <path
       style="fill:#000000;stroke-width:1.33333"
       d="m 321.73178,552.12938 c -14.25372,-4.63786 -27.2088,-16.05373 -34.09719,-30.04604 -4.07327,-8.27399 -4.2842,-9.46013 -4.2842,-24.09185 0,-14.65195 0.20661,-15.80908 4.31151,-24.14732 17.3325,-35.20731 65.16476,-42.48123 92.09397,-14.00486 3.8897,4.11315 8.6897,10.93004 10.66667,15.14866 3.25077,6.93668 3.59452,9.13652 3.59452,23.00352 0,14.56186 -0.21583,15.77437 -4.28972,24.09925 -5.46903,11.17579 -15.66804,21.39492 -26.84369,26.89668 -7.81843,3.849 -10.08796,4.32394 -22.12272,4.62958 -8.62739,0.21909 -15.41454,-0.3115 -19.02915,-1.48762 z M 247.50656,422.32482 c -29.00517,-30.05746 -30.15617,-31.5192 -30.15617,-38.29795 0,-5.22477 0.67926,-6.60147 5.66666,-11.48463 12.40867,-12.14934 32.06701,-24.92598 49.96679,-32.47516 35.33019,-14.90039 81.50571,-16.96417 117.39993,-5.24712 22.0963,7.21296 47.92492,22.21218 62.63329,36.37246 6.40407,6.16542 7,7.24872 7,12.7246 0,6.94348 -1.3441,8.66409 -29.48271,37.74113 -16.27989,16.82283 -17.34905,17.66667 -22.38421,17.66667 -4.40696,0 -6.79912,-1.21199 -14.36149,-7.27624 -18.49742,-14.83306 -34.57888,-20.01446 -59.10493,-19.04339 -21.3995,0.84727 -34.5054,5.73224 -51.11668,19.05282 -7.55701,6.05996 -9.94169,7.26681 -14.35881,7.26681 -5.0388,0 -6.09591,-0.82809 -21.70167,-17 z m -61.17947,-66.06014 c -4.68632,-2.04032 -46.11824,-45.92311 -47.15899,-49.94863 -1.87497,-7.25226 0.59962,-11.9232 11.22725,-21.19205 54.07265,-47.15932 117.52992,-71.13252 188.28837,-71.13252 70.86983,0 134.13062,23.89897 188.28838,71.13252 10.87905,9.48812 13.52478,14.7714 10.89794,21.76215 -2.07725,5.52814 -43.11306,48.20768 -47.8561,49.77303 -5.75626,1.89974 -10.13598,0.0992 -19.44401,-7.9939 -33.72121,-29.31949 -71.42044,-45.42909 -115.79867,-49.483 -51.44474,-4.69943 -106.36995,13.24896 -145.42087,47.52043 -7.70067,6.75819 -15.26671,11.40301 -18.29051,11.22864 -0.57356,-0.0331 -2.70331,-0.78308 -4.73279,-1.66667 z M 106.68372,273.3816 c -4.42683,-2.43889 -44.296151,-45.21647 -45.719691,-49.0547 -3.07643,-8.29482 2.66631,-15.53585 28.38636,-35.7924 56.776841,-44.7162 119.824761,-72.52785 190.607811,-84.0808 23.90034,-3.90092 76.36749,-4.901306 101.89883,-1.9429 77.48219,8.97815 150.98265,40.46037 212.16004,90.87388 19.97986,16.46449 22.66666,19.60498 22.66666,26.49418 0,6.26026 -2.04165,8.80414 -32.94025,41.04342 -17.18836,17.93416 -20.08036,18.33817 -35.15692,4.91156 -47.19712,-42.03202 -103.83898,-68.54115 -166.5695,-77.95672 -22.14567,-3.32396 -64.65847,-3.31392 -86.61568,0.0204 -54.44391,8.26776 -102.12061,28.15648 -145.38433,60.64827 -6.6,4.9567 -15.3,11.9985 -19.33333,15.64844 -12.94679,11.7161 -16.76027,13.17593 -24,9.1873 z"
       id="path1598" />
  </g>
</svg>
