<?xml version="1.0" encoding="UTF-8" standalone="no"?>
<svg
   id="emoji"
   viewBox="0 0 72 72"
   version="1.1"
   sodipodi:docname="person.svg"
   inkscape:version="1.1.2 (0a00cf5339, 2022-02-04)"
   xmlns:inkscape="http://www.inkscape.org/namespaces/inkscape"
   xmlns:sodipodi="http://sodipodi.sourceforge.net/DTD/sodipodi-0.dtd"
   xmlns="http://www.w3.org/2000/svg"
   xmlns:svg="http://www.w3.org/2000/svg">
  <defs
     id="defs2298">
    <linearGradient
       id="linearGradient4804"
       inkscape:swatch="solid">
      <stop
         style="stop-color:#000000;stop-opacity:1;"
         offset="0"
         id="stop4802" />
    </linearGradient>
    <linearGradient
       id="linearGradient4780"
       inkscape:swatch="solid">
      <stop
         style="stop-color:#000000;stop-opacity:1;"
         offset="0"
         id="stop4778" />
    </linearGradient>
  </defs>
  <sodipodi:namedview
     id="namedview2296"
     pagecolor="#ffffff"
     bordercolor="#666666"
     borderopacity="1.0"
     inkscape:pageshadow="2"
     inkscape:pageopacity="0.0"
     inkscape:pagecheckerboard="true"
     showgrid="false"
     inkscape:zoom="10.458333"
     inkscape:cx="36.000001"
     inkscape:cy="36.000001"
     inkscape:window-width="1920"
     inkscape:window-height="1016"
     inkscape:window-x="0"
     inkscape:window-y="0"
     inkscape:window-maximized="1"
     inkscape:current-layer="emoji" />
  <ellipse
     style="fill:#fffffd;fill-opacity:1;stroke:none"
     id="path848"
     cx="36"
     cy="36"
     rx="34.541"
     ry="34.540272" />
  <g
     id="line"
     transform="translate(1.6000011,2.1500011)">
    <path
       fill="none"
       stroke="#000000"
       stroke-linecap="round"
       stroke-linejoin="round"
       stroke-width="2"
       d="m 20.6,57.2 -0.1,-8.3 c 0,-1 0.1,-2.6 0.7,-3.2 a 7.4939,7.4939 0 0 1 1.6,-0.5 c 0.9,-0.3 1.4,-2.8 2.1,-2.9 0.6,-0.1 2.9,2.8 3.1,2.9 a 5.3665,5.3665 0 0 1 0.1,2.2 24.7765,24.7765 0 0 0 -0.2,6.1 c 0.1,0.9 0.8,3.7 0.8,3.7"
       id="path979" />
    <path
       fill="none"
       stroke="#000000"
       stroke-linecap="round"
       stroke-linejoin="round"
       stroke-width="2"
       d="m 48,57.2 0.1,-8.3 c 0,-1 -0.1,-2.6 -0.7,-3.2 a 7.4939,7.4939 0 0 0 -1.6,-0.5 c -0.9,-0.3 -1.4,-2.8 -2.1,-2.9 -0.6,-0.1 -2.9,2.8 -3.1,2.9 a 5.3665,5.3665 0 0 0 -0.1,2.2 24.7765,24.7765 0 0 1 0.2,6.1 c -0.1,0.9 -0.8,3.7 -0.8,3.7"
       id="path981" />
    <path
       fill="none"
       stroke="#000000"
       stroke-linecap="round"
       stroke-linejoin="round"
       stroke-width="2"
       d="m 28.2,47.5 a 11.3052,11.3052 0 0 0 7.8,1.7 v 0 a 11.9485,11.9485 0 0 0 4,-1.4"
       id="path983" />
    <path
       fill="none"
       stroke="#000000"
       stroke-linecap="round"
       stroke-linejoin="round"
       stroke-width="2"
       d="m 16.3,57.2 v -2.9 a 6.264,6.264 0 0 1 0.6,-2.7 C 17.3,50.3 18,49.3 20.1,48"
       id="path985" />
    <path
       fill="none"
       stroke="#000000"
       stroke-linecap="round"
       stroke-linejoin="round"
       stroke-width="2"
       d="M 52.5,57.2 V 54.3 A 6.264,6.264 0 0 0 51.9,51.6 C 51.5,50.3 50.8,49.3 48.7,48"
       id="path987" />
    <g
       id="g999">
      <path
         fill="none"
         stroke="#000000"
         stroke-linecap="round"
         stroke-linejoin="round"
         stroke-width="2"
         d="m 24.5,37.5 c -4,0 -4,-6 -4,-13 0,-7 4,-14 14,-14 10,0 14,7 14,14 0,7 0,13 -4,13"
         id="path989" />
      <path
         d="m 40.4,28.5 a 2,2 0 1 1 -2,-2 2.0059,2.0059 0 0 1 2,2"
         id="path991" />
      <path
         d="m 32.4,28.5 a 2,2 0 1 1 -2,-2 2.0059,2.0059 0 0 1 2,2"
         id="path993" />
      <path
         fill="none"
         stroke="#000000"
         stroke-linejoin="round"
         stroke-width="2"
         d="m 23.4,29.5 c 0,9 4.9,14 11,14 5.9,0 11.1,-5 11.1,-14 a 12.1332,12.1332 0 0 0 -1,-5 c -3,-3 -7,-8 -7,-8 -4,3 -7,6 -13,7 0,0 -1.1,1 -1.1,6 z"
         id="path995" />
      <path
         fill="none"
         stroke="#000000"
         stroke-linecap="round"
         stroke-linejoin="round"
         stroke-width="2"
         d="m 31.5,36.5 a 6.6712,6.6712 0 0 0 6,0"
         id="path997" />
    </g>
  </g>
</svg>
