<?xml version="1.0" encoding="UTF-8" standalone="no"?>
<svg
   id="emoji"
   viewBox="0 0 72 72"
   version="1.1"
   sodipodi:docname="play.svg"
   inkscape:version="1.1.2 (0a00cf5339, 2022-02-04)"
   xmlns:inkscape="http://www.inkscape.org/namespaces/inkscape"
   xmlns:sodipodi="http://sodipodi.sourceforge.net/DTD/sodipodi-0.dtd"
   xmlns="http://www.w3.org/2000/svg"
   xmlns:svg="http://www.w3.org/2000/svg">
  <defs
     id="defs1471" />
  <sodipodi:namedview
     id="namedview1469"
     pagecolor="#ffffff"
     bordercolor="#666666"
     borderopacity="1.0"
     inkscape:pageshadow="2"
     inkscape:pageopacity="0.0"
     inkscape:pagecheckerboard="true"
     showgrid="false"
     inkscape:zoom="6.4119689"
     inkscape:cx="52.791897"
     inkscape:cy="37.040105"
     inkscape:window-width="1920"
     inkscape:window-height="1016"
     inkscape:window-x="0"
     inkscape:window-y="0"
     inkscape:window-maximized="1"
     inkscape:current-layer="emoji" />
  <ellipse
     style="fill:#fffffd;fill-opacity:1;stroke-width:4.65"
     id="path848"
     cx="36"
     cy="36"
     rx="34.540501"
     ry="34.540272" />
  <g
     id="g6"
     transform="matrix(0.11289063,0,0,0.11289063,7.0999987,7.0999987)">
    <g
       id="g4">
      <path
         d="M 256,0 C 114.608,0 0,114.608 0,256 0,397.392 114.608,512 256,512 397.392,512 512,397.392 512,256 512,114.608 397.392,0 256,0 Z m 0,496 C 123.664,496 16,388.336 16,256 16,123.664 123.664,16 256,16 388.336,16 496,123.664 496,256 496,388.336 388.336,496 256,496 Z"
         id="path2" />
    </g>
  </g>
  <g
     id="g12"
     transform="matrix(0.11289063,0,0,0.11289063,3.3493204,7.0819362)">
    <g
       id="g10">
      <polygon
         points="189.776,370.992 388.672,256.16 189.776,141.328 "
         id="polygon8" />
    </g>
  </g>
</svg>
