<?xml version="1.0" encoding="UTF-8" standalone="no"?>
<svg
   id="emoji"
   viewBox="0 0 151.18111 151.18111"
   version="1.1"
   sodipodi:docname="send.svg"
   width="151.18111"
   height="151.18111"
   inkscape:version="1.1.2 (0a00cf5339, 2022-02-04)"
   xmlns:inkscape="http://www.inkscape.org/namespaces/inkscape"
   xmlns:sodipodi="http://sodipodi.sourceforge.net/DTD/sodipodi-0.dtd"
   xmlns="http://www.w3.org/2000/svg"
   xmlns:svg="http://www.w3.org/2000/svg">
  <defs
     id="defs1072" />
  <sodipodi:namedview
     id="namedview1070"
     pagecolor="#ffffff"
     bordercolor="#666666"
     borderopacity="1.0"
     inkscape:pageshadow="2"
     inkscape:pageopacity="0.0"
     inkscape:pagecheckerboard="0"
     showgrid="false"
     fit-margin-top="0"
     fit-margin-left="0"
     fit-margin-right="0"
     fit-margin-bottom="0"
     inkscape:zoom="0.4621974"
     inkscape:cx="74.643432"
     inkscape:cy="74.643432"
     inkscape:window-width="1920"
     inkscape:window-height="1016"
     inkscape:window-x="0"
     inkscape:window-y="0"
     inkscape:window-maximized="1"
     inkscape:current-layer="emoji" />
  <ellipse
     style="fill:#ffffff;fill-opacity:1;stroke:none;stroke-width:3.77953;stroke-miterlimit:4;stroke-dasharray:none;stroke-opacity:0.0854831"
     id="path848"
     cx="75.590553"
     cy="75.590553"
     rx="75.591003"
     ry="75.590553" />
  <path
     style="fill:#000000;stroke-width:0.143082"
     d="m 50.090262,125.52587 c -1.575483,-0.26424 -3.206417,-1.52102 -3.843858,-2.96205 -0.189909,-0.42935 -1.11195,-5.11859 -2.564209,-13.04086 -1.247208,-6.80374 -2.252083,-12.385011 -2.23305,-12.402819 0.01908,-0.01783 5.849217,4.130329 12.95595,9.218079 l 12.921325,9.25045 -0.607233,0.54401 c -1.228292,1.10041 -12.833208,8.73778 -13.860342,9.1217 -0.836825,0.31279 -1.900433,0.41709 -2.768583,0.27149 z m 38.11005,-4.22698 c -0.432825,-0.11488 -1.1089,-0.36777 -1.502375,-0.56196 -0.864675,-0.42675 -30.905892,-22.265398 -30.905892,-22.467231 0,-0.07808 15.338792,-15.255749 34.0862,-33.728216 18.747405,-18.472466 34.054875,-33.586308 34.016605,-33.586308 -0.0622,0 -11.16891,8.729309 -62.494388,49.117183 -8.090133,6.3661 -14.790433,11.543617 -14.889542,11.505584 -0.388725,-0.149167 -21.948358,-15.903575 -22.526274,-16.460767 -2.140742,-2.063967 -2.661134,-5.320892 -1.282592,-8.0272 0.37605,-0.738258 1.706617,-2.126775 2.462467,-2.569742 0.500266,-0.293175 97.026289,-37.376949 100.451949,-38.592049 0.81776,-0.290067 1.28768,-0.381209 1.64545,-0.319134 1.2615,0.218867 2.06788,1.250959 1.97421,2.526834 -0.0397,0.540991 -4.46683,12.814841 -16.19002,44.885649 -8.87445,24.277574 -16.303958,44.430787 -16.510025,44.784927 -0.947123,1.62773 -2.796473,3.00705 -4.694648,3.50146 -1.039858,0.27085 -2.601292,0.26698 -3.641125,-0.009 z"
     id="path1047" />
</svg>
