<?xml version="1.0" encoding="UTF-8" standalone="no"?>
<svg
   id="emoji"
   viewBox="0 0 72 72"
   version="1.1"
   sodipodi:docname="settings.svg"
   inkscape:version="1.1.2 (0a00cf5339, 2022-02-04)"
   xmlns:inkscape="http://www.inkscape.org/namespaces/inkscape"
   xmlns:sodipodi="http://sodipodi.sourceforge.net/DTD/sodipodi-0.dtd"
   xmlns="http://www.w3.org/2000/svg"
   xmlns:svg="http://www.w3.org/2000/svg">
  <defs
     id="defs44" />
  <sodipodi:namedview
     id="namedview42"
     pagecolor="#ffffff"
     bordercolor="#666666"
     borderopacity="1.0"
     inkscape:showpageshadow="2"
     inkscape:pageopacity="0"
     inkscape:pagecheckerboard="true"
     inkscape:deskcolor="#d1d1d1"
     showgrid="false"
     inkscape:zoom="3.2777778"
     inkscape:cx="36"
     inkscape:cy="36.152542"
     inkscape:window-width="1920"
     inkscape:window-height="1016"
     inkscape:window-x="0"
     inkscape:window-y="0"
     inkscape:window-maximized="1"
     inkscape:current-layer="emoji"
     inkscape:pageshadow="2" />
  <g
     id="hair" />
  <g
     id="skin" />
  <g
     id="skin-shadow" />
  <ellipse
     style="fill:#fffffd;fill-opacity:1;stroke-width:4.65"
     id="path848"
     cx="35.807865"
     cy="36.327728"
     rx="34.540501"
     ry="34.540272" />
  <g
     id="g1008"
     transform="translate(7.4975593e-4,1.2461921)">
    <g
       id="color">
      <circle
         cx="36.051998"
         cy="34.906399"
         r="5.6135998"
         fill="#ffffff"
         id="circle981" />
      <path
         fill="#d0cfce"
         d="m 51.2579,29.8111 c 0,0 -1.8149,-0.4504 -1.0786,-2.0742 l 4.5037,-7.4841 -3.6502,-3.417 -0.73,-0.6833 -7.1357,4.6903 c -0.9431,0.4213 -2.037,-0.1166 -2.2794,-1.1205 l -1.887,-7.8158 h -6 l -1.8809,7.7858 c -0.2389,0.9894 -1.3101,1.5798 -2.2425,1.1716 -0.0148,-0.0063 -0.0296,-0.0131 -0.0445,-0.0198 l -7.1357,-4.6904 -0.73,0.6833 -3.6502,3.417 4.5037,7.4841 c 0.7364,1.6238 -1.0785,2.0743 -1.0785,2.0743 l -8.4766,2.1074 0.1649,4.9972 0.033,0.9995 8.3622,1.7291 c 0.952,0.3641 1.3501,1.4954 0.8358,2.3755 l -0.0328,0.0562 -4.5037,7.484 3.6502,3.417 0.73,0.6833 7.1357,-4.6902 c 0.0149,-0.0068 0.03,-0.0129 0.0445,-0.02 0,0 0.0115,-0.0042 0.0332,-0.0111 1.1606,-0.3768 2.393,0.3463 2.6794,1.5325 l 1.7947,7.4336 h 6 l 1.887,-7.8158 c 0.2424,-1.0039 1.3364,-1.5417 2.2794,-1.1205 l 7.1357,4.6903 0.73,-0.6833 3.6502,-3.417 -4.5037,-7.4841 -0.0328,-0.0562 c -0.5143,-0.88 -0.1162,-2.0112 0.8358,-2.3755 l 8.3622,-1.729 0.033,-0.9995 0.1649,-4.9973 z M 36,44.9064 c -5.5228,0 -10,-4.4772 -10,-10 0,-5.5228 4.4772,-10 10,-10 5.5228,0 10,4.4772 10,10 0,5.5228 -4.4772,10 -10,10 z"
         id="path983" />
      <path
         fill="#9b9b9a"
         d="m 36,24.9064 c -5.5228,0 -10,4.4772 -10,10 0,5.5228 4.4772,10 10,10 5.5228,0 10,-4.4772 10,-10 0,-5.5228 -4.4772,-10 -10,-10 z m 0,15 c -2.7614,0 -5,-2.2386 -5,-5 0,-2.7614 2.2386,-5 5,-5 2.7614,0 5,2.2385 5,5 0,2.7615 -2.2386,5 -5,5 z"
         id="path985" />
    </g>
    <g
       id="line">
      <circle
         cx="36"
         cy="34.906399"
         r="5"
         fill="none"
         stroke="#000000"
         stroke-linecap="round"
         stroke-linejoin="round"
         stroke-width="2"
         id="circle988" />
      <circle
         cx="36"
         cy="34.906399"
         r="10"
         fill="none"
         stroke="#000000"
         stroke-linecap="round"
         stroke-linejoin="round"
         stroke-width="2"
         id="circle990" />
      <path
         fill="none"
         stroke="#000000"
         stroke-linecap="round"
         stroke-linejoin="round"
         stroke-width="2"
         d="m 31.1191,19.6921 c -0.2389,0.9895 -1.31,1.5799 -2.2425,1.1717 -0.0147,-0.0065 -0.0296,-0.0131 -0.0445,-0.0199 l -7.1357,-4.6903 -0.73,0.6834 -3.6502,3.417 4.5037,7.484 c 0.7363,1.6239 -1.0785,2.0744 -1.0785,2.0744 l -8.4766,2.1074 0.1649,4.9973 0.033,0.9995 8.3622,1.7291 v 0 c 0.9521,0.3641 1.3501,1.4954 0.8359,2.3754 l -0.0328,0.0562 -4.5037,7.484 3.6502,3.417 0.73,0.6834 7.1357,-4.6903 c 0.0149,-0.0068 0.03,-0.0129 0.0445,-0.0199 0,0 0.0116,-0.0042 0.0332,-0.0112 1.1606,-0.3768 2.393,0.3463 2.6794,1.5324 l 1.7947,7.4336 h 6 l 1.8869,-7.8157 c 0.2424,-1.004 1.3364,-1.5418 2.2794,-1.1205 v 0 l 7.1357,4.6903 0.73,-0.6834 3.6502,-3.417 -4.5037,-7.484 -0.0328,-0.0562 c -0.5143,-0.8801 -0.1162,-2.0113 0.8359,-2.3755 v 0 l 8.3622,-1.7291 0.033,-0.9995 0.1649,-4.9973 -8.4766,-2.1074 c 0,0 -1.8149,-0.4505 -1.0785,-2.0744 l 4.5037,-7.484 -3.6502,-3.417 -0.73,-0.6834 -7.1357,4.6903 v 0 c -0.943,0.4212 -2.037,-0.1166 -2.2794,-1.1206 L 39,11.9064 h -6 z"
         id="path992" />
    </g>
  </g>
</svg>
