<?xml version="1.0" encoding="iso-8859-1"?>
<!-- Generator: Adobe Illustrator 19.0.0, SVG Export Plug-In . SVG Version: 6.00 Build 0)  -->
<svg version="1.1" id="Layer_1" xmlns="http://www.w3.org/2000/svg" xmlns:xlink="http://www.w3.org/1999/xlink" x="0px" y="0px"
	 viewBox="0 0 459 459" style="enable-background:new 0 0 459 459;" xml:space="preserve">
<g>
	<g>
		<path d="M229.5,0C102.751,0,0,102.751,0,229.5S102.751,459,229.5,459C356.25,459,459,356.25,459,229.5S356.25,0,229.5,0z
			 M350.814,119.183l-72.647,139.261c-4.401,8.438-11.285,15.321-19.722,19.723l-139.262,72.647
			c-3.156,1.647-7.016,1.055-9.534-1.463c-2.518-2.518-3.11-6.378-1.463-9.534l72.648-139.261
			c4.401-8.438,11.285-15.321,19.722-19.723l139.261-72.647c3.156-1.646,7.016-1.054,9.534,1.463
			C351.868,112.166,352.461,116.026,350.814,119.183z"/>
	</g>
</g>
<g>
</g>
<g>
</g>
<g>
</g>
<g>
</g>
<g>
</g>
<g>
</g>
<g>
</g>
<g>
</g>
<g>
</g>
<g>
</g>
<g>
</g>
<g>
</g>
<g>
</g>
<g>
</g>
<g>
</g>
</svg>
